# xmcd
#
# Track frame offsets: 
#        150
#        15616
#        26813
#        40633
#        51713
#        67619
#        82095
#        93338
#        109228
#        128080
#        140421
#        154079
#        167705
#
# Disc length: 2386 seconds
#
# Revision: 0
# Processed by: cddbd v1.5.2PL0 Copyright (c) Steve Scherf et al.
# Submitted via: ExactAudioCopy v0.99pb5
#
DISCID=a809500d
DTITLE=Danny June Smith - Back In The Bar
DYEAR=2009
DGENRE=Country
TTITLE0=Back In The Bar
TTITLE1=Somedays You Gotta Dance
TTITLE2=Has It Gone To Far
TTITLE3=I Wish You Knew
TTITLE4=My Baby's Gone
TTITLE5=You Made My Day
TTITLE6=Blue Moon Of Kentucky
TTITLE7=Rodeo Man
TTITLE8=Take It To The Limit
TTITLE9=Little Dragon
TTITLE10=We Work Out
TTITLE11=No One Needs To Know
TTITLE12=Cowboy's Sweetheart
EXTD=
EXTT0=
EXTT1=
EXTT2=
EXTT3=
EXTT4=
EXTT5=
EXTT6=
EXTT7=
EXTT8=
EXTT9=
EXTT10=
EXTT11=
EXTT12=
PLAYORDER=
